# xmcd
#
# Track frame offsets: 
#        150
#        15476
#        30712
#        58837
#        69027
#        87693
#        100218
#        114932
#        131472
#
# Disc length: 1878 seconds
#
# Revision: 0
# Processed by: cddbd v1.5.2PL0 Copyright (c) Steve Scherf et al.
# Submitted via: ExactAudioCopy v0.99pb4
#
DISCID=6d075409
DTITLE=Alex Caporuscio  -  Alex Caporuscio 
DYEAR=2010
DGENRE=Blues
TTITLE0=I Feel Brand New 
TTITLE1=Big Trouble 
TTITLE2=When You Lose Your Women 
TTITLE3=My Own Stamp 
TTITLE4=Fishin' Wit Da Wrong Bait 
TTITLE5=Don?t Worry Baby 
TTITLE6=Outside Woman Blues 
TTITLE7=The Very Thought of You 
TTITLE8=WHAT!? 
EXTD=
EXTT0=
EXTT1=
EXTT2=
EXTT3=
EXTT4=
EXTT5=
EXTT6=
EXTT7=
EXTT8=
PLAYORDER=
